<svg xmlns="http://www.w3.org/2000/svg" viewBox="0 0 61.8 61.81"><g data-name="Layer 2"><g data-name="—ÎÓÈ 1"><circle cx="30.9" cy="30.9" r="30.9" fill="#9f82bb"/><path fill="#4c4a4f" fill-rule="evenodd" d="M52.6 52.92a30.9 30.9 0 0 1-43.67-.3 9.2 9.2 0 0 1 4.03-4.83 19.8 19.8 0 0 1 4.08-2.32c-2.2-7.55 3.78-11.26 6.06-12.33 0 3.48 3.27 1.17 7.32 1.21 3.34.04 9.93 3.4 9.93-1.03 3.67 1.09 7.67 8.08 4.92 12.38a17.61 17.61 0 0 1 3.18 2 10.2 10.2 0 0 1 4.14 5.22z"/><path fill="#302e33" fill-rule="evenodd" d="m23.48 38.69 15.68.09V42.27a9.47 9.47 0 0 1-.4 1.85c-1.15 3.8-4.29 5.6-7.97 7.42-2.89-1.5-6.98-4.2-7.3-8.97l-.01-.06v-.2a6.78 6.78 0 0 1 0-.2v.1z"/><path fill-rule="evenodd" d="M39.16 38.66v3.58a3.81 3.81 0 0 1-.13.83 12.65 12.65 0 0 1-.54 1.81 9.52 9.52 0 0 1-15.01-5.97z" opacity=".22"/><path fill="#302e33" fill-rule="evenodd" d="M31.13 8.43c21.28 0 12.99 35.27 0 35.27-12.27 0-21.28-35.27 0-35.27zM19.8 49.17c.03.04 10.42 13.48 22.63-.2-1.48 4.05-7.84 7.27-11.48 7.26-6.95-.02-10.8-5.6-11.15-7.06z"/><path fill="#302e33" fill-rule="evenodd" d="M18.36 24.05c-3.07 1.33-.46 7.68 1.48 7.65a31.97 31.97 0 0 1-1.48-7.65zm25.78 0c3.07 1.33.46 7.68-1.47 7.65a32 32 0 0 0 1.47-7.65z"/><path fill="#ed4b39" fill-rule="evenodd" d="M31.5 30.65c-.12.12.22.14-.4.12l-1.08-.64c.16-.66.85-.98.99-1.65l-.85-.76c.71-1.03 1.22-.45.67-2.3-.83-2.76 1.33-3.29-.83-7.72a19.26 19.26 0 0 1-1.48-4.8c-.91-4.27.7-3.82 1.38-4.43a13.5 13.5 0 0 0-4 .84 10.1 10.1 0 0 0-2.96 1.68c-.03.54.9.35 1.26.06l2.78-1.43c-.6 1.4-.98 1.89-.22 3.5.68 1.43-.22 2.33-1.15 2.93-2.28 1.45-6.34.87-2.5 3.96a4.7 4.7 0 0 1 3.11-2.27 2.45 2.45 0 0 1 2.5 2.64 5.58 5.58 0 0 0 .24 3.06l.47.66a12.54 12.54 0 0 0-1.1.77c.3.3.75.42 1 .7.58.66.28 2.18-1.44 3.1-1.5.81-3.87 1.26-4.34 2.67.33.26.5.3.82.53.35.27.41.46.77.7.42-.39 1.9-2.4 3.4-2.4.16.77-1.47 1.33-2.37 2.9-.26.44-.38.8-.76 1.02-.52-.26-1.05-1.65-2.26-2.2-.62.56-.55.66-.1 1.28.64.85 2.43 3.55 2.89 3.94 1.05-1.19.18-.66 2-2.12.75.39 1.3 1.56 2.76 1.73v.15c3.06-.32 2.62-1.14 3.88-1.87 1.62 1.32 1.02 1.07 1.99 2.13a41.06 41.06 0 0 0 2.84-3.88c.16-.22.43-.48.43-.7l-.48-.7c-.03 0-.08 0-.1.04 0 .04-.06.04-.08.05l-1.06.9a9.82 9.82 0 0 1-1.02 1.23c-.6-.36-.56-1.07-1.52-2.02-.34-.34-.6-.6-.93-.88-.32-.27-.74-.44-.69-.98 1.49 0 2.97 2.07 3.4 2.41l1.6-1.26c-.43-1.97-5.18-1.96-5.9-4.34-.45-1.46.46-1.62.86-1.9.24-.17.13-.08.26-.23-.27-.28-.66-.5-.97-.76.24-.94.74-.1.64-2.96-.06-1.7-.44-1.68.79-2.69.87-.71 1.34-1.04 2.8-.33.97.47 1.18 1.11 1.92 1.84.7-.28 2.5-1.88 1.12-2.6-.62-.32-2.47-.57-3.64-1.38-1.12-.75-1.66-1.72-1-3a3.27 3.27 0 0 0-.38-3.4 10.42 10.42 0 0 1 1.56.78c.25.14 2.87 1.9 2.5.76a11.9 11.9 0 0 0-2.89-1.76 16.65 16.65 0 0 0-3.88-.87c.45.3 1.39.56 1.47 1.9a20 20 0 0 1-1.8 7.45c-2.1 4.35.08 4.37-.82 7.75-.4 1.49.04 1.28.72 2.12-.27.4-.53.47-.82.77.14.71.81 1.01.95 1.64a2.06 2.06 0 0 1-.95.52zm-9.45 1.08a11.89 11.89 0 0 1-2.2-2.6c-.5-.92-.66-3.2 0-3.82.87.93 1.2 2.3 2.23 3.07 1.25.93 1.44 1.58-.03 3.35zm18.37 0c-1.61-2.26-1.15-2.39.01-3.34 1.08-.89 1.36-2.25 2-2.84.29-.26.06-.12.38-.23 1.42 2.89-1.77 6.25-2.39 6.4zM31 41.2l-.29 1.21c-.97-1.05-.08-1.6-.02-2.41.06-.88-.93-1.9.37-2.3l.24-.04c1.43.2.52 1.43.52 2.22 0 1.12.8.78.11 2.43l-.4-1.2-.34-.09-.19.18zm-.75-3.96c.8.02 3.17-.12 3.55.23.76.69-.23 1.9-.25 2.63-.03 1.07.94 1.49.6 2.58-.46 1-1.58.8-2.97.9l-.98.05c-3.09-.2-1.15-2.53-1.22-3.53-.01-.69-.51-1.12-.5-1.86 0-1.05.61-1 1.77-1zm-1.9-13.68a1.09 1.09 0 0 1-.6.83c-.94.52-2.8-.77-3.4-1.16-2.15-1.42-2.63 1.54-3.31 2.26-1.19-.68-.6-2.1-.85-3.45-.18-1.01-.82-1.89-1-3.2-.36-2.53 1.06-4.82 2.2-6.27l.28.29c-.6.7-3 3.38-1.2 4.48 1.53.94-.03 2.51 1.1 3.47.38.33.35.23 1.02.3.97.1 1.07.21 2.38-1.21.45-.5.57-1.04 1.11-1.25.73.4.82 1.65.9 2.5.12 1.47-.24 1.5.77 1.91.57.23.38.13.6.5zm13.42-9.33c-.58-.8-1.45-.92-.7-1.54 1.24 1.53 2.59 3.64 2.26 6.24-.17 1.4-.82 2.1-1 3.24-.23 1.58.43 2.39-.84 3.34-.6-.58-1.15-3.68-3.39-2.23-4.2 2.71-3.91.1-3.89.06.34-.23.98-.39 1.16-.66.38-.56-.18-3.42 1.08-4.04.53.2 1.53 1.98 2.4 2.4a2.55 2.55 0 0 0 2.08-.25c1.18-1.01-.42-2.55 1.12-3.47 1.18-.7.36-2.23-.28-3.1zm-10.5 18.22.17-.01c.66-.27.86-.77 1.55-1.14a2.14 2.14 0 0 1 2.04 1.46c-.1.44-2.15 1.52-3.29 2.48-.4.33-.06.24-.6.28a15.24 15.24 0 0 0-1.4-1.07c-1.32-.81-2.87-1.45-1.94-2.35a3 3 0 0 1 1.74-.86c.55.4 1.1 1.1 1.73 1.21z"/><path fill="#e6e6e6" fill-rule="evenodd" d="M33.05 11.74v.14a1.8 1.8 0 1 1-3.6 0v-.14c.25-2.24 1.24-3.93 1.86-5.9.58 1.97 1.46 3.53 1.74 5.9zm8.06.65a2.47 2.47 0 0 1-.02.12 1.59 1.59 0 1 1-3.09-.74.66.66 0 0 0 .03-.12 10.77 10.77 0 0 0 2.81-4.67 8.07 8.07 0 0 1 .28 5.42zm-19.78.01.02.12a1.59 1.59 0 1 0 3.09-.74.65.65 0 0 1-.03-.12A10.77 10.77 0 0 1 21.59 7a8.07 8.07 0 0 0-.27 5.42z"/></g></g></svg>